# xmcd
#
# Track frame offsets:
#	150
#	12849
#	23862
#	33193
#	43801
#	54315
#	63066
#	76047
#	87941
#	101747
#	114446
#	127877
#	139331
#	153188
#	165086
#	178262
#	188600
#	202484
#	213452
#	224339
#	239990
#	255188
#	268478
#	285629
#
# Disc length: 4030 seconds
#
# Revision: 0
# Processed by: cddbd v1.5.2PL0 Copyright (c) Steve Scherf et al.
# Submitted via: audiograbber 1.83.01
#
DISCID=520fbc18
DTITLE=Various Artist - Soul Satisfaction 5
DYEAR=1900
DGENRE=Soul
TTITLE0=Barrett Strong - You Knows What To Do
TTITLE1=Marvelettes - Way Over There
TTITLE2=Stevie Wonder - Contract On Love
TTITLE3=Velvelettes - That's The Reason Why
TTITLE4=Earl King - A Man And A Book
TTITLE5=Marvelettes - A Need For Love
TTITLE6=Marvin Gaye - Need Someone
TTITLE7=Temptations - Born To Love You
TTITLE8=Sammy Ward - Then You Changed
TTITLE9=Smokey Robinson and The Miracles - My Baby Changes Like The Weather
TTITLE10=Earl Van Dyke - Nowhere To Run
TTITLE11=Isley Brothers - Why When Love Is Gone
TTITLE12=Contours - Your Love Grows More Precious Everyday
TTITLE13=Marvin Gaye - Tear It On Down
TTITLE14=Gladys Knight and The Pips - Keep An Eye (LP Version)
TTITLE15=Chuck Jackson - We'll Find A Way
TTITLE16=Fantastic Four - Pinpoint It Down
TTITLE17=Blinky and Edwin Starr - I See A Rainbow
TTITLE18=Diana Ross - Something On My Mind
TTITLE19=Supremes - Life Beats
TTITLE20=Thelma Houston - Nothing Left To Give
TTITLE21=Jimmy Ruffin - I Will Never Let You Go
TTITLE22=Originals - Good Lovin' Is Just A Dime Away
TTITLE23=Dynamic Superiors - Don't Send Nobody Else
EXTD=
EXTT0=
EXTT1=
EXTT2=
EXTT3=
EXTT4=
EXTT5=
EXTT6=
EXTT7=
EXTT8=
EXTT9=
EXTT10=
EXTT11=
EXTT12=
EXTT13=
EXTT14=
EXTT15=
EXTT16=
EXTT17=
EXTT18=
EXTT19=
EXTT20=
EXTT21=
EXTT22=
EXTT23=
PLAYORDER=
